<?xml version="1.0" standalone="no"?>
<!DOCTYPE svg PUBLIC "-//W3C//DTD SVG 20010904//EN"
 "http://www.w3.org/TR/2001/REC-SVG-20010904/DTD/svg10.dtd">
<svg version="1.0" xmlns="http://www.w3.org/2000/svg"
 width="960.000000pt" height="960.000000pt" viewBox="0 0 960.000000 960.000000"
 preserveAspectRatio="xMidYMid meet">
<metadata>
Created by potrace 1.14, written by Peter Selinger 2001-2017
</metadata>
<g transform="translate(0.000000,960.000000) scale(0.100000,-0.100000)"
fill="#000000" stroke="none">
<path d="M4570 9589 c-146 -6 -214 -15 -410 -54 -129 -25 -246 -48 -260 -50
-14 -3 -67 -13 -117 -22 -51 -9 -93 -19 -93 -22 0 -3 -20 -7 -44 -7 -54 -2
-377 -82 -392 -98 -20 -20 -104 -245 -104 -279 0 -17 -7 -45 -15 -60 -8 -15
-18 -49 -24 -75 -25 -127 -45 -215 -67 -297 -13 -49 -30 -119 -38 -155 -50
-230 -84 -380 -128 -560 -27 -113 -83 -349 -124 -525 -41 -176 -111 -465 -155
-642 -44 -176 -79 -325 -78 -330 1 -4 -2 -17 -6 -27 -6 -13 -4 -21 4 -24 8 -3
9 -8 2 -16 -6 -7 -12 -34 -15 -60 -3 -33 -13 -59 -33 -84 -45 -56 -57 -81 -40
-87 54 -21 590 -7 822 21 252 31 406 53 425 61 8 3 22 5 30 4 8 -1 69 8 134
19 65 11 124 20 132 20 18 0 18 -36 0 -43 -8 -3 -126 -23 -263 -44 -136 -20
-249 -40 -251 -44 -2 -4 -11 -5 -20 -2 -9 2 -140 -12 -290 -32 -245 -32 -336
-41 -594 -62 -43 -3 -78 -9 -78 -12 0 -3 -28 -7 -61 -9 -34 -2 -94 -14 -133
-27 -149 -51 -202 -56 -574 -54 -191 0 -367 4 -392 9 -25 4 -85 16 -135 25
-49 9 -100 15 -112 12 -12 -2 -24 0 -25 5 -2 4 -43 13 -92 19 -91 11 -85 8
-222 100 -59 39 -170 155 -216 226 -28 43 -80 79 -98 68 -17 -11 -11 -38 31
-140 61 -151 112 -233 231 -377 122 -146 385 -345 613 -464 107 -55 179 -101
315 -196 62 -44 358 -199 503 -263 37 -16 67 -33 67 -36 0 -3 19 -14 42 -25
23 -10 65 -38 93 -62 27 -24 79 -60 115 -79 36 -20 79 -47 97 -60 17 -12 36
-23 42 -23 11 0 28 -49 36 -105 4 -24 15 -47 28 -57 12 -10 27 -22 34 -28 22
-18 95 -225 121 -340 14 -63 29 -116 33 -118 4 -2 6 -9 3 -16 -3 -7 0 -35 6
-62 6 -26 13 -89 16 -139 7 -133 11 -155 34 -155 18 0 19 6 15 58 -2 31 -7 89
-10 127 -6 79 -5 75 -40 245 -16 73 -50 187 -83 275 -56 147 -57 152 -58 257
-1 77 -6 117 -18 142 -10 21 -14 45 -10 60 3 13 1 33 -5 45 -6 11 -13 67 -15
124 -2 57 -10 122 -17 146 -10 34 -10 49 1 79 15 42 25 52 59 52 13 0 41 15
62 34 44 41 93 53 143 36 41 -13 46 -32 15 -58 -72 -57 -89 -77 -104 -116 -11
-29 -14 -56 -10 -87 4 -24 8 -64 9 -89 1 -25 8 -55 14 -67 10 -17 9 -31 -2
-63 -13 -37 -12 -41 4 -50 15 -8 23 -4 39 16 25 32 26 38 7 53 -12 10 -10 21
13 73 15 33 35 64 43 69 9 5 102 11 207 13 147 3 202 1 243 -10 29 -8 58 -16
65 -18 7 -1 22 -14 33 -29 27 -34 44 -34 58 -2 6 13 28 33 49 42 21 10 39 26
41 37 4 20 -31 54 -83 82 -16 9 -49 36 -72 59 -39 39 -43 48 -43 92 0 27 6 55
13 62 10 10 6 18 -19 39 -20 17 -34 40 -38 63 -4 21 -16 49 -28 65 -12 15 -23
41 -24 57 -1 17 -8 41 -15 54 -11 21 -10 25 9 39 14 10 22 26 22 44 0 24 -6
31 -35 41 -19 7 -35 17 -35 22 0 9 -119 6 -335 -8 -291 -18 -285 -19 -285 4 0
24 16 27 175 36 61 3 175 10 255 15 80 5 193 12 253 16 l107 6 0 -26 c0 -23
-4 -26 -34 -26 -41 0 -54 -15 -27 -29 26 -14 31 -14 31 4 0 8 6 12 14 9 7 -3
29 4 48 16 l35 20 28 -22 c28 -22 85 -129 85 -160 0 -27 29 -22 40 7 5 13 12
48 15 77 12 108 15 118 34 118 10 0 24 -7 31 -15 16 -19 34 -19 86 1 60 23 96
3 129 -72 18 -41 29 -55 42 -52 13 2 18 13 18 38 0 66 38 85 110 54 35 -14 41
-14 76 2 36 16 40 16 64 0 14 -9 25 -24 25 -33 0 -14 3 -13 20 5 12 12 25 22
31 22 18 0 41 68 29 90 -21 38 -12 59 34 80 53 23 104 26 132 6 24 -18 13 -29
-46 -45 -25 -7 -56 -21 -70 -31 l-24 -18 39 -19 c22 -10 43 -22 47 -28 10 -13
-2 -27 -18 -21 -20 8 -84 -24 -84 -42 0 -29 53 -62 100 -62 34 0 51 -23 31
-43 -7 -7 -44 -13 -84 -14 -110 -3 -161 -8 -174 -16 -20 -13 -35 -81 -23 -111
5 -14 14 -26 21 -26 6 0 10 -17 8 -42 -1 -24 -2 -55 -1 -70 2 -27 2 -27 41
-13 34 12 43 11 72 -3 43 -22 57 -45 40 -66 -18 -22 -60 -20 -96 4 -39 26 -45
25 -45 -6 0 -14 -6 -40 -14 -57 -28 -63 -41 -123 -36 -162 4 -33 9 -41 29 -43
15 -2 30 3 37 13 18 24 117 18 122 -9 5 -23 -18 -67 -30 -60 -5 3 -18 -2 -29
-12 -19 -17 -18 -18 22 -45 24 -16 64 -30 93 -34 66 -9 70 -12 52 -41 -19 -28
-21 -54 -3 -54 11 0 38 48 38 67 0 4 7 12 15 16 8 4 14 17 14 28 0 12 -4 17
-11 13 -8 -4 -9 0 -4 15 4 13 -2 35 -16 60 l-22 40 27 35 c19 25 37 37 64 42
20 4 42 11 49 16 6 5 60 11 120 14 93 5 117 10 170 35 49 24 67 28 82 19 11
-5 34 -10 51 -10 50 0 180 -78 180 -109 0 -5 -30 -19 -66 -31 -49 -16 -64 -26
-60 -37 3 -8 6 -16 6 -18 0 -2 9 -1 20 2 11 3 20 10 20 15 0 5 4 6 10 3 5 -3
32 1 60 9 44 13 54 13 85 0 20 -8 40 -12 45 -9 6 4 10 1 10 -5 0 -6 10 -10 23
-8 38 5 24 30 -30 50 -28 11 -54 27 -58 36 -3 8 -25 41 -48 73 -65 88 -138
127 -380 199 -71 21 -130 40 -133 42 -20 20 106 80 208 98 26 5 55 13 65 18
11 7 32 5 62 -4 24 -7 48 -11 53 -8 4 3 8 1 8 -4 0 -5 16 -13 35 -19 30 -10
37 -9 45 7 8 15 -1 25 -65 65 -43 27 -82 59 -90 75 -20 38 -30 43 -56 29 -24
-12 -92 2 -104 22 -10 15 15 39 40 39 12 0 30 9 40 20 17 19 17 20 -15 50 -38
35 -31 54 19 52 36 -1 63 25 40 38 -7 5 -23 7 -35 4 -14 -4 -31 3 -50 21 -26
25 -34 27 -83 21 -37 -4 -58 -2 -69 6 -9 8 -45 13 -95 13 -53 0 -82 4 -84 12
-6 18 25 30 96 37 36 4 77 14 91 21 15 8 58 16 96 19 38 3 90 11 115 19 25 8
81 15 125 16 43 1 122 7 174 12 52 5 247 10 432 10 l337 1 99 -31 c82 -26 101
-36 112 -59 13 -25 14 -26 17 -6 3 15 13 23 34 26 16 3 29 2 29 -2 0 -9 218
-42 230 -35 5 3 10 2 10 -3 0 -5 26 -13 58 -17 80 -9 102 -15 102 -29 0 -12
46 -42 126 -80 59 -28 134 -95 134 -119 0 -28 -20 -29 -66 -2 -52 31 -84 39
-85 22 -1 -7 -2 -21 -3 -32 -1 -26 -35 -23 -101 11 -81 42 -145 95 -153 128
-4 16 -14 31 -22 34 -12 3 -12 1 -2 -6 13 -9 6 -42 -9 -42 -4 0 -50 18 -100
40 -51 22 -95 40 -99 40 -4 0 -7 -7 -7 -16 0 -9 31 -39 69 -67 37 -27 68 -53
68 -57 0 -4 -6 -12 -13 -18 -10 -9 -23 -5 -50 14 -73 49 -25 -14 72 -94 32
-27 34 -32 36 -98 3 -78 18 -116 71 -172 18 -20 34 -41 34 -48 0 -6 9 -19 20
-29 17 -16 28 -55 15 -55 -27 0 -62 39 -122 133 -74 118 -131 253 -110 260 7
2 9 8 4 12 -4 5 -11 4 -16 -1 -11 -11 -18 -121 -8 -131 4 -3 7 -34 7 -68 0
-46 5 -66 19 -82 19 -20 18 -20 -5 -38 -23 -17 -24 -22 -18 -93 6 -66 5 -77
-11 -88 -16 -12 -17 -21 -9 -78 8 -50 7 -71 -3 -91 -12 -22 -11 -34 7 -91 11
-36 20 -76 20 -89 0 -12 7 -28 15 -35 8 -7 15 -19 15 -28 0 -8 7 -24 17 -34
23 -26 33 -89 44 -283 14 -264 13 -288 -22 -357 -29 -57 -32 -88 -9 -88 5 0
25 31 45 69 l34 69 -5 214 c-5 188 -4 216 10 227 9 8 16 18 16 23 0 5 9 21 19
36 11 15 22 49 26 77 6 41 14 56 46 86 56 52 119 60 189 24 44 -22 50 -29 50
-58 0 -38 8 -51 35 -55 11 -2 42 -16 68 -33 33 -20 61 -29 90 -29 39 0 47 -5
105 -67 l63 -67 28 17 c32 19 67 22 76 7 3 -5 -5 -33 -18 -62 -13 -29 -41 -98
-62 -153 -46 -121 -52 -130 -72 -113 -26 21 -87 -62 -168 -230 -41 -84 -75
-157 -75 -161 0 -8 31 -25 34 -19 1 2 33 67 71 145 38 79 71 141 73 138 14
-14 -1 -122 -28 -201 -18 -49 -34 -98 -37 -109 -3 -11 -14 -29 -23 -40 -10
-11 -30 -40 -46 -65 -37 -58 -78 -106 -177 -208 -66 -66 -92 -86 -133 -99 -45
-14 -57 -14 -95 -2 -39 13 -45 19 -58 61 -14 46 -14 48 13 89 20 30 25 44 17
52 -14 14 -31 -3 -59 -56 -19 -35 -19 -41 -5 -97 9 -33 19 -58 23 -55 4 3 10
-1 13 -9 3 -8 19 -17 36 -21 17 -4 31 -12 31 -18 0 -7 -16 -61 -35 -122 -19
-60 -35 -113 -35 -117 0 -5 8 -8 18 -8 13 0 26 26 55 114 20 62 37 120 37 127
0 8 11 15 24 15 22 2 23 -1 16 -27 -5 -15 -4 -74 1 -131 5 -57 10 -123 10
-148 1 -34 7 -49 25 -63 39 -30 47 -53 33 -95 -7 -20 -23 -51 -36 -68 -29 -38
-29 -39 2 -76 14 -16 25 -36 25 -44 0 -8 -15 -47 -34 -87 -23 -50 -35 -90 -38
-131 l-3 -58 210 -109 c116 -60 213 -109 217 -109 4 0 5 7 1 16 -4 11 1 22 12
30 32 24 63 16 101 -25 20 -21 51 -55 69 -75 39 -43 71 -47 85 -11 8 22 12 24
37 14 15 -6 37 -18 48 -28 50 -43 115 -67 115 -42 0 5 -28 33 -62 63 -90 77
-138 142 -138 184 0 19 -7 49 -16 65 -8 17 -13 38 -10 46 12 31 60 3 141 -83
61 -65 87 -85 109 -87 16 -1 31 3 33 9 2 5 -56 68 -128 140 -72 71 -139 145
-149 164 -10 19 -27 44 -39 54 -12 11 -21 23 -21 27 0 4 -16 35 -36 69 -53 91
-29 107 56 38 60 -49 102 -78 113 -78 11 0 -18 52 -42 74 -11 10 -32 41 -46
70 -15 28 -32 56 -39 61 -13 11 -56 107 -56 124 0 20 36 11 78 -20 32 -23 191
-99 209 -99 2 0 3 5 3 12 0 23 -52 87 -88 108 -26 16 -32 24 -23 33 9 9 19 7
44 -5 17 -9 43 -20 57 -24 14 -4 48 -26 75 -49 68 -57 194 -133 233 -141 58
-12 38 15 -81 106 -25 19 -55 52 -67 72 -12 21 -25 38 -29 38 -4 0 -18 9 -31
20 -13 11 -19 20 -15 20 5 0 4 5 -3 12 -7 7 -12 23 -12 37 0 13 -11 36 -25 50
-28 30 -162 188 -187 221 -16 21 -15 50 2 50 4 0 27 -18 50 -39 39 -36 133
-91 154 -91 5 0 42 -20 83 -45 88 -54 174 -91 224 -98 20 -2 43 -8 50 -12 17
-11 119 -16 119 -6 0 16 -47 49 -110 79 -70 33 -108 74 -144 159 -20 45 -16
63 15 63 10 0 19 2 19 4 0 3 -29 35 -64 73 -133 143 -166 191 -166 248 0 46
10 60 51 70 19 5 41 -4 90 -33 91 -55 123 -66 147 -53 32 17 63 13 101 -14 36
-24 36 -24 176 -14 77 5 161 12 188 15 32 4 60 1 87 -10 45 -18 196 -21 206
-4 11 17 -19 29 -69 26 -26 -2 -47 0 -47 5 0 4 -12 7 -27 7 -36 0 -47 8 -64
45 -9 19 -26 34 -47 41 -17 5 -37 15 -44 22 -7 7 -20 12 -31 12 -23 0 -57 18
-57 30 0 16 77 11 94 -6 10 -10 40 -16 88 -19 40 -2 89 -9 108 -15 19 -6 72
-15 117 -20 82 -10 83 -10 153 24 38 19 70 32 70 29 0 -3 7 0 15 7 8 7 15 21
15 31 0 22 -27 24 -114 8 -94 -17 -232 27 -328 104 -49 39 -49 66 0 100 79 56
220 115 293 124 27 3 52 10 55 15 3 4 -8 25 -25 45 -17 21 -31 43 -31 50 0 24
-45 36 -130 36 -54 0 -95 5 -113 14 -16 8 -34 12 -40 9 -7 -2 -4 -5 6 -5 9 -1
17 -5 17 -10 0 -5 -9 -7 -20 -4 -11 3 -20 9 -20 13 0 14 -33 17 -57 7 -17 -8
-27 -6 -41 6 -10 10 -28 17 -39 17 -14 0 -26 11 -36 33 -23 47 -65 83 -122
104 -37 14 -51 25 -55 43 -8 32 -38 38 -56 11 -20 -28 -38 -26 -52 4 -12 25
-19 29 -58 26 -11 -1 -32 8 -47 20 -22 17 -25 24 -16 35 6 8 26 14 43 14 17 0
42 9 55 19 22 16 23 23 17 67 -7 57 -14 65 -64 79 -38 11 -53 38 -33 58 6 6
30 10 54 8 29 -1 48 3 56 13 19 22 7 33 -48 45 -27 6 -75 26 -107 44 -33 19
-79 38 -104 42 -51 9 -103 55 -98 89 5 32 104 77 175 79 58 2 58 2 63 -29 9
-55 154 -164 247 -184 67 -16 86 -28 79 -53 -6 -27 -2 -34 53 -77 40 -31 50
-34 102 -32 52 2 61 -1 94 -29 20 -18 40 -40 46 -51 9 -16 5 -21 -25 -33 -60
-25 -44 -70 37 -104 50 -22 56 -34 31 -69 -14 -20 -13 -24 10 -55 14 -18 29
-44 34 -57 8 -21 21 -27 92 -41 l82 -17 48 48 c100 103 255 367 331 565 11 28
33 77 49 110 44 91 92 250 126 415 19 90 20 174 4 280 -5 36 -11 88 -14 115
-10 119 -124 422 -166 445 -11 6 -39 36 -62 68 -24 31 -45 59 -48 62 -3 3 -15
17 -25 31 -27 34 -198 184 -244 213 -43 27 -307 162 -401 204 -73 33 -159 59
-300 92 -52 12 -131 30 -175 40 -44 11 -110 24 -147 29 -37 5 -71 12 -76 15
-5 3 -53 8 -106 10 -53 3 -100 7 -104 10 -4 3 -75 5 -157 5 -135 0 -178 -5
-434 -50 -157 -27 -367 -72 -470 -99 -102 -28 -192 -50 -198 -50 -7 0 -13 9
-13 20 0 14 11 22 43 30 118 32 229 63 287 82 36 12 72 23 80 26 8 3 29 4 45
3 17 0 68 8 115 19 47 12 97 21 113 20 15 0 46 9 68 21 31 15 51 19 79 14 53
-9 62 10 56 122 -6 106 -40 353 -62 443 -9 36 -18 94 -19 130 -2 36 -11 99
-19 140 -8 41 -13 89 -10 107 4 18 -3 62 -15 105 -126 449 -116 422 -204 552
-79 114 -88 124 -212 217 l-130 97 -380 141 c-208 78 -385 139 -392 137 -6 -3
-13 -1 -15 3 -4 11 -860 163 -933 166 -33 1 -139 -1 -235 -6z"/>
<path d="M6590 5866 c0 -2 7 -7 16 -10 8 -3 12 -2 9 4 -6 10 -25 14 -25 6z"/>
<path d="M6800 5810 c27 -21 40 -25 40 -12 0 9 -44 32 -58 32 -4 0 4 -9 18
-20z"/>
<path d="M3780 5709 c0 -6 5 -20 11 -31 8 -16 13 -18 19 -8 5 7 6 19 3 26 -6
16 -33 27 -33 13z"/>
<path d="M4170 5700 c0 -23 15 -27 23 -6 3 8 -1 17 -9 20 -9 4 -14 -1 -14 -14z"/>
<path d="M3910 5526 c0 -18 60 -76 78 -76 13 0 15 13 6 46 -9 35 -84 61 -84
30z"/>
<path d="M5563 5255 c-53 -35 -62 -48 -43 -60 15 -9 120 58 117 74 -4 24 -20
21 -74 -14z"/>
<path d="M5627 5094 c-15 -20 -16 -28 -6 -40 11 -13 15 -11 35 13 16 20 19 32
12 41 -14 17 -20 15 -41 -14z"/>
<path d="M3833 5063 c-14 -5 -16 -57 -5 -84 5 -12 13 -14 30 -8 17 6 22 16 22
43 0 36 -22 58 -47 49z"/>
<path d="M3650 4959 c0 -53 -4 -67 -38 -117 -55 -82 -55 -80 -33 -92 18 -9 25
-2 65 60 43 67 46 75 46 140 0 63 -2 70 -20 70 -18 0 -20 -7 -20 -61z"/>
<path d="M4277 4953 c-4 -3 -2 -14 4 -25 10 -19 12 -19 30 -2 10 9 19 20 19
23 0 9 -45 12 -53 4z"/>
<path d="M3803 4935 c-13 -9 -23 -26 -23 -37 0 -11 -10 -41 -22 -65 -20 -40
-21 -48 -9 -90 10 -41 10 -51 -5 -79 -16 -29 -16 -37 -4 -73 12 -36 11 -43 -3
-59 -24 -27 -21 -40 8 -34 14 2 25 11 25 20 0 8 18 30 40 49 33 29 40 41 40
71 0 20 -5 44 -10 52 -6 10 -1 24 17 49 21 27 26 45 27 95 1 53 -1 61 -18 61
-10 0 -23 12 -30 28 -10 26 -12 27 -33 12z"/>
<path d="M2815 4655 c-24 -32 -26 -39 -13 -51 13 -13 18 -11 43 21 24 32 26
39 13 51 -13 13 -18 11 -43 -21z"/>
<path d="M6935 4635 c-22 -8 -40 -15 -41 -15 -1 0 -29 -32 -64 -71 -47 -53
-60 -73 -51 -82 8 -8 30 7 85 62 63 63 79 73 112 75 72 5 74 6 74 26 0 17 -7
20 -37 20 -21 -1 -56 -7 -78 -15z"/>
<path d="M8457 4604 c-8 -8 1 -24 14 -24 5 0 9 7 9 15 0 15 -12 20 -23 9z"/>
<path d="M4885 4531 c-9 -8 -5 -40 5 -46 15 -9 40 14 40 36 0 12 -7 17 -20 16
-12 -1 -23 -3 -25 -6z"/>
<path d="M6887 4503 c-10 -9 13 -33 30 -33 10 0 13 6 9 16 -3 9 -6 18 -6 20 0
7 -26 5 -33 -3z"/>
<path d="M6791 4313 c-7 -21 -15 -92 -18 -158 l-5 -120 -39 -41 c-22 -22 -36
-43 -33 -47 4 -4 2 -7 -5 -7 -7 0 -9 -9 -7 -22 3 -13 10 -49 16 -80 9 -48 15
-58 32 -58 16 0 19 4 14 25 -3 13 -8 53 -11 87 -2 35 -2 53 1 41 8 -33 23 -29
66 18 36 38 50 79 28 79 -5 0 -10 -5 -10 -12 0 -6 -3 -8 -6 -5 -12 11 -3 190
12 255 18 80 18 82 -4 82 -13 0 -23 -12 -31 -37z"/>
<path d="M3481 4313 c1 -10 -1 -25 -4 -33 -3 -8 -12 -49 -21 -90 -11 -57 -12
-77 -3 -82 8 -5 9 -8 1 -8 -7 0 0 -34 18 -89 24 -76 32 -88 48 -84 18 5 17 10
-14 99 -18 51 -30 97 -26 101 7 8 40 166 40 191 0 6 -9 12 -21 12 -13 0 -20
-6 -18 -17z"/>
<path d="M3727 4308 c-15 -8 -17 -17 -13 -43 9 -48 -1 -64 -45 -71 -30 -5 -41
-12 -45 -30 -11 -42 10 -54 90 -49 194 10 236 25 236 81 0 14 5 34 10 44 9 16
6 21 -14 26 -17 4 -31 1 -41 -10 -9 -9 -20 -16 -24 -16 -12 0 -32 26 -25 32 3
3 -12 9 -32 13 -20 3 -46 13 -58 20 -15 10 -26 11 -39 3z"/>
<path d="M3587 4279 c-13 -8 -15 -14 -7 -30 14 -25 87 -27 97 -3 13 33 -50 56
-90 33z"/>
<path d="M6985 4234 c-31 -41 -14 -124 25 -124 16 0 49 78 43 101 -13 54 -38
63 -68 23z"/>
<path d="M4421 4136 c-10 -12 -2 -22 44 -57 30 -23 57 -51 60 -63 25 -112 25
-108 -5 -161 -16 -28 -37 -58 -47 -67 -40 -36 -238 -148 -262 -149 -14 0 -60
0 -100 0 -54 0 -80 -4 -92 -15 -15 -14 -23 -14 -74 2 -55 15 -69 15 -163 -2
-27 -5 -33 -3 -30 9 3 16 -113 116 -138 118 -20 2 -26 4 -57 19 -24 12 -30 12
-38 -1 -5 -8 -8 -23 -7 -34 2 -16 11 -20 43 -21 40 -1 109 -39 147 -81 17 -18
16 -20 -35 -36 -28 -9 -68 -19 -88 -22 -22 -3 -55 -22 -86 -48 -27 -23 -69
-55 -91 -72 -23 -16 -42 -36 -42 -42 0 -10 -22 -12 -88 -9 l-88 4 -39 -81
c-21 -45 -49 -96 -62 -114 -16 -22 -23 -45 -23 -76 0 -29 -6 -49 -17 -59 -22
-19 -80 -49 -90 -47 -5 1 -9 -22 -10 -51 -2 -29 -5 -55 -8 -58 -3 -3 -5 70 -5
161 0 160 -1 167 -20 167 -19 0 -20 -7 -20 -170 0 -163 1 -170 20 -170 14 0
20 -7 20 -22 0 -27 22 -88 31 -88 4 0 5 -8 2 -18 -2 -9 1 -35 6 -57 6 -22 18
-69 27 -105 41 -167 84 -268 145 -338 16 -18 29 -38 29 -46 0 -7 14 -39 31
-72 17 -32 51 -97 75 -144 25 -47 57 -101 73 -120 36 -46 98 -167 105 -207 8
-48 77 -153 101 -155 11 0 27 -2 35 -2 10 -1 15 -11 15 -30 -1 -24 9 -35 72
-77 40 -26 116 -78 168 -114 52 -37 95 -64 95 -60 0 3 12 -7 28 -22 15 -15 35
-34 43 -41 14 -11 16 -9 11 13 -4 24 -2 25 41 25 25 0 52 3 60 6 8 3 30 -8 48
-24 31 -27 144 -67 177 -62 6 1 29 1 50 1 240 -4 304 -2 316 8 7 6 15 9 18 6
3 -3 50 5 104 18 105 25 270 101 355 163 26 19 66 41 90 49 24 9 52 23 62 33
11 9 22 15 26 13 3 -2 15 12 26 32 11 20 35 45 55 56 36 20 90 71 76 71 -18 0
26 39 162 141 132 99 430 359 531 462 39 41 47 67 20 67 -5 0 -38 -28 -72 -61
-168 -166 -419 -380 -451 -385 -8 -1 -73 -42 -143 -92 -220 -154 -352 -230
-439 -253 -43 -11 -90 -18 -103 -16 -24 5 -71 -10 -71 -22 0 -8 -59 -6 -91 3
-27 8 -100 -21 -114 -44 -3 -5 -29 -16 -57 -25 -28 -8 -60 -22 -70 -32 -10 -9
-21 -13 -25 -9 -13 13 13 61 40 74 38 19 37 57 -3 71 -41 14 -38 36 10 80 22
20 40 42 40 50 0 22 -54 91 -69 88 -13 -2 -42 -41 -57 -77 -3 -8 -12 -29 -20
-47 -18 -41 -19 -40 16 -70 33 -27 38 -48 14 -57 -27 -10 -38 -7 -71 25 -27
24 -33 38 -33 72 0 57 -18 88 -59 102 -19 6 -36 16 -38 21 -2 6 10 28 27 49
16 21 30 44 30 51 0 19 13 17 44 -7 47 -37 78 -29 136 34 55 60 94 74 120 42
16 -19 34 -19 50 0 7 8 27 15 45 15 41 0 48 8 30 36 -13 20 -13 25 0 38 8 8
15 20 15 26 0 15 -44 30 -91 30 -46 0 -48 7 -8 38 20 16 47 25 82 28 28 2 70
6 92 8 22 2 48 4 58 5 25 1 67 46 67 72 0 12 -13 37 -30 55 -16 19 -34 52 -40
73 -6 25 -18 42 -30 46 -23 7 -60 -2 -60 -15 0 -5 -16 -12 -35 -16 -26 -4 -43
-1 -68 15 -44 27 -83 27 -97 1 -9 -16 -21 -20 -66 -20 -40 0 -63 -5 -81 -19
-22 -18 -36 -19 -141 -15 -64 3 -122 10 -129 16 -7 6 -13 21 -13 33 0 13 -7
25 -15 29 -17 6 -55 87 -55 115 0 9 -6 26 -14 36 -14 19 -15 19 -35 1 -19 -17
-27 -18 -74 -8 -28 6 -71 16 -93 23 -38 11 -44 11 -69 -9 -23 -18 -39 -21 -94
-20 -55 2 -71 -2 -97 -21 -26 -19 -35 -21 -52 -12 -11 6 -37 11 -56 11 -39 0
-65 20 -90 69 -9 16 -26 38 -39 48 -26 20 -77 115 -77 143 0 25 5 27 77 39 33
5 75 19 94 30 43 26 75 26 147 0 74 -26 217 -42 246 -27 11 6 40 10 64 9 23 0
57 6 75 16 18 9 43 17 57 18 14 1 49 14 79 29 30 14 69 26 85 26 29 1 66 19
66 34 0 11 -124 6 -210 -9 -47 -9 -130 -15 -185 -14 -152 2 -185 1 -253 -6
-43 -5 -67 -4 -75 4 -6 6 -27 11 -46 12 -20 0 -45 4 -56 8 -11 5 -25 4 -32 -1
-9 -7 -22 -7 -40 0 -16 6 -40 13 -55 16 -25 6 -27 8 -16 26 14 22 49 36 118
46 30 5 53 16 70 34 37 39 61 49 108 43 26 -4 55 0 82 11 22 9 53 16 68 16 32
0 149 45 173 66 20 18 53 18 90 -1 37 -20 59 -9 74 36 18 51 37 57 82 26 61
-42 102 -35 111 18 1 11 8 26 16 33 10 10 17 9 38 -8 38 -29 57 -25 74 15 16
38 14 38 124 36 66 -2 77 -5 95 -27 23 -27 36 -30 65 -12 16 10 24 10 40 0 26
-16 105 -16 118 1 11 13 6 28 -31 80 -18 25 -18 26 14 71 26 36 39 46 61 46
15 0 27 -3 26 -7 -1 -5 4 -21 10 -36 7 -16 12 -41 12 -56 0 -19 9 -34 30 -49
18 -14 33 -37 40 -63 7 -23 21 -54 32 -70 22 -30 24 -60 13 -201 -9 -102 -11
-104 -92 -58 -32 18 -62 29 -73 25 -11 -3 -30 4 -50 22 -27 23 -44 28 -99 30
-54 2 -73 -2 -107 -22 -22 -13 -47 -31 -54 -41 -13 -14 -11 -19 8 -35 21 -16
26 -17 65 -3 55 20 131 22 152 4 9 -8 24 -30 33 -49 9 -20 27 -40 38 -46 12
-6 34 -25 49 -43 15 -18 35 -32 44 -32 12 0 28 -22 50 -68 38 -84 43 -158 11
-185 -27 -23 -26 -88 2 -154 18 -40 28 -53 45 -53 26 0 83 54 83 80 0 10 6 20
13 23 8 3 21 21 30 40 15 30 15 40 4 73 -7 22 -15 75 -16 119 -1 44 -7 99 -13
122 -6 27 -7 53 -1 75 18 63 9 197 -19 271 -15 37 -24 67 -22 67 2 0 -3 16
-11 36 -8 20 -15 46 -15 58 0 12 -11 37 -25 56 -14 19 -25 41 -25 50 0 8 -23
46 -50 84 -28 38 -48 76 -46 85 3 10 -36 63 -104 141 -65 75 -136 170 -177
238 -42 70 -72 111 -80 108 -10 -4 -13 8 -13 45 0 46 -2 51 -20 46 -10 -3 -24
1 -31 9 -22 26 -31 15 -25 -31 8 -57 15 -75 38 -100 10 -11 34 -38 53 -59 31
-35 99 -156 100 -179 0 -4 5 -11 10 -15 22 -15 85 -113 85 -132 0 -50 -99 -41
-161 15 -41 37 -54 42 -64 25 -9 -15 -25 -12 -25 5 0 23 -59 34 -99 19 -31
-13 -38 -12 -88 12 l-55 25 47 30 c27 17 52 42 60 62 7 17 25 47 39 66 31 42
34 93 7 118 -10 10 -22 38 -26 63 -11 67 -29 87 -131 152 -7 4 -17 1 -23 -6z"/>
<path d="M6856 4065 c-9 -26 -7 -32 5 -12 6 10 9 21 6 23 -2 3 -7 -2 -11 -11z"/>
<path d="M3345 3941 c-14 -101 -6 -130 53 -198 44 -49 67 -67 118 -87 69 -28
94 -32 94 -16 0 6 0 12 0 15 0 3 -3 5 -6 4 -4 0 -10 3 -13 8 -3 5 -32 20 -65
34 -40 16 -72 39 -103 73 l-45 50 4 80 c2 69 1 81 -13 84 -13 2 -18 -8 -24
-47z"/>
<path d="M4087 3794 c-15 -25 -25 -50 -22 -55 10 -16 32 -10 47 13 13 19 22
21 92 20 42 -1 85 2 96 8 21 11 27 35 11 44 -19 12 -108 16 -134 7 -17 -7 -28
-7 -32 -1 -12 20 -31 9 -58 -36z"/>
<path d="M8000 3370 c0 -6 7 -10 15 -10 8 0 15 2 15 4 0 2 -7 6 -15 10 -8 3
-15 1 -15 -4z"/>
<path d="M4440 2870 c-22 -5 -23 -7 -7 -13 26 -10 57 -9 57 2 0 13 -22 18 -50
11z"/>
<path d="M5044 2335 c-4 -9 4 -25 20 -40 14 -13 26 -33 26 -45 0 -15 6 -20 25
-20 28 0 33 21 10 40 -8 7 -15 21 -15 30 0 34 -12 50 -36 50 -14 0 -27 -7 -30
-15z"/>
<path d="M6770 2196 c0 -191 -121 -413 -291 -534 -63 -45 -257 -113 -318 -111
-26 1 -56 -3 -68 -9 -12 -7 -39 -12 -60 -12 -21 0 -65 -7 -97 -15 -59 -16 -98
-14 -121 5 -7 6 -19 8 -28 4 -22 -8 -78 23 -71 40 5 12 12 13 50 1 41 -12 44
-12 44 6 0 24 -43 69 -65 69 -9 0 -19 -8 -22 -17 -8 -20 -68 -80 -95 -94 -9
-5 -19 -22 -23 -38 -9 -42 -29 -55 -90 -55 -52 -1 -57 -4 -107 -53 -30 -29
-59 -53 -65 -53 -6 0 -17 -7 -24 -16 -18 -22 -43 -30 -113 -38 -54 -7 -100
-25 -233 -94 -17 -10 -70 -35 -117 -57 -75 -35 -86 -43 -81 -61 3 -13 -3 -32
-14 -45 -21 -27 -30 -63 -33 -132 -1 -27 -4 -50 -7 -52 -14 -8 -127 -15 -137
-8 -5 5 -20 24 -32 45 -22 36 -63 58 -107 58 -12 0 -32 11 -45 25 -13 14 -30
25 -38 25 -14 0 -81 37 -92 50 -9 12 -99 32 -115 26 -18 -7 -65 35 -65 58 0
20 -42 49 -51 35 -4 -7 -63 19 -162 70 -86 45 -165 81 -175 81 -10 0 -26 8
-35 18 -9 9 -52 35 -96 57 -55 27 -81 46 -81 58 0 9 7 17 16 17 14 0 14 3 4
15 -15 18 -21 19 -44 2 -22 -16 -47 -128 -40 -182 3 -22 1 -92 -4 -155 -7 -86
-6 -122 3 -145 7 -16 16 -38 19 -48 3 -10 18 -25 34 -34 16 -9 37 -29 48 -44
34 -47 155 -169 183 -183 42 -22 191 -156 191 -172 0 -26 -30 -15 -78 29 -26
24 -92 69 -147 101 -80 45 -108 67 -134 105 -38 57 -74 80 -99 65 -30 -19 -27
-50 7 -62 34 -12 41 -37 13 -46 -23 -8 -147 -131 -173 -173 -25 -40 -60 -202
-52 -247 4 -24 2 -36 -6 -36 -6 0 -11 16 -11 35 0 20 -7 49 -15 65 -13 25 -14
45 -5 132 11 106 21 257 24 363 0 33 4 62 7 65 4 3 12 59 18 126 13 148 55
372 82 436 38 93 19 100 -85 31 -149 -99 -222 -148 -262 -178 -23 -16 -82 -59
-130 -95 -111 -80 -304 -270 -304 -298 0 -11 -7 -25 -16 -33 -8 -7 -24 -30
-35 -51 -11 -22 -27 -42 -35 -45 -8 -3 -27 -26 -41 -52 -15 -25 -38 -54 -50
-64 -13 -10 -29 -24 -36 -31 -15 -16 -108 -96 -133 -116 -11 -8 -61 -50 -113
-93 -72 -61 -122 -92 -222 -140 -96 -46 -129 -66 -129 -80 0 -12 6 -17 18 -16
9 2 64 -1 121 -5 111 -8 254 6 303 31 56 28 100 7 82 -40 -6 -15 -132 -61
-239 -87 -27 -7 -57 -14 -65 -17 -8 -3 -55 -5 -105 -5 -115 2 -198 -12 -269
-43 -31 -14 -56 -21 -56 -16 0 4 -32 12 -71 18 -52 7 -86 6 -132 -4 -34 -8
-93 -17 -132 -21 -38 -5 1776 -9 4032 -9 l4102 -1 -14 36 c-15 35 -27 53 -52
80 -7 7 -13 21 -13 31 0 10 -9 28 -20 40 -10 13 -29 53 -41 89 -12 37 -33 76
-48 90 -76 69 -90 89 -146 212 -41 92 -66 135 -81 140 -12 5 -60 37 -107 73
-106 80 -199 137 -223 137 -24 0 -136 35 -179 56 -19 9 -36 25 -39 40 -8 30
-47 57 -78 52 -14 -2 -29 -15 -38 -34 -11 -24 -21 -32 -40 -30 -23 1 -26 -3
-34 -61 -5 -35 -14 -63 -19 -63 -5 0 -26 19 -48 42 -40 43 -44 55 -54 171 -5
64 -12 86 -56 183 -11 23 -19 47 -19 55 0 27 -41 81 -123 164 -45 45 -161 164
-257 264 -143 149 -182 184 -215 193 -22 6 -66 33 -97 60 -31 26 -76 57 -100
67 -24 10 -77 34 -118 54 -82 38 -142 65 -237 108 l-63 28 0 -83z"/>
<path d="M3740 1336 c0 -3 9 -10 20 -16 11 -6 20 -8 20 -6 0 3 -9 10 -20 16
-11 6 -20 8 -20 6z"/>
<path d="M4710 1117 c-22 -6 -29 -12 -19 -14 9 -2 32 3 50 11 39 17 20 19 -31
3z"/>
<path d="M3347 852 c-16 -17 -23 -42 -13 -42 24 0 56 23 56 40 0 25 -22 26
-43 2z"/>
<path d="M1970 839 c-47 -5 -128 -13 -180 -19 -52 -6 -122 -10 -156 -10 -61 0
-351 -53 -383 -69 -27 -15 -170 -49 -236 -57 -33 -3 -64 -9 -70 -12 -18 -11
-39 -14 -170 -19 -71 -3 -134 -8 -140 -12 -11 -8 -121 -7 -312 4 -115 6 -136
5 -158 -9 -22 -15 -24 -21 -19 -59 4 -23 13 -52 20 -64 18 -29 18 -43 -3 -58
-16 -12 -16 -18 -4 -66 8 -30 19 -65 27 -79 7 -14 21 -43 30 -65 11 -25 58
-79 122 -142 103 -99 106 -101 152 -101 l48 -1 -29 32 c-16 17 -29 35 -29 39
0 4 -20 13 -45 19 -40 10 -45 15 -45 39 0 15 7 33 15 40 23 19 18 29 -17 38
-45 11 -49 38 -6 47 44 10 124 79 144 125 18 39 83 80 154 95 19 4 73 18 119
31 60 17 108 24 175 24 50 0 127 5 171 11 91 12 135 3 135 -30 0 -23 -14 -35
-70 -57 -25 -10 -63 -32 -86 -49 -22 -17 -68 -41 -103 -54 -46 -17 -79 -38
-121 -79 -59 -57 -106 -85 -232 -139 -37 -15 -68 -33 -68 -40 0 -6 26 -19 57
-28 45 -13 79 -15 158 -10 119 7 270 33 305 50 14 7 48 16 75 19 116 15 195
29 195 36 0 4 11 5 24 3 38 -8 104 28 216 118 190 152 540 508 540 549 0 18
-6 20 -57 19 -32 -1 -96 -6 -143 -10z"/>
</g>
</svg>
